<svg width="24" height="24" viewBox="0 0 24 24" fill="none" xmlns="http://www.w3.org/2000/svg">
<g clip-path="url(#clip0_133_1407)">
<path fill-rule="evenodd" clip-rule="evenodd" d="M11.9998 2.80002C17.0808 2.80002 21.1998 6.919 21.1998 12C21.1998 17.081 17.0808 21.2 11.9998 21.2C6.91879 21.2 2.7998 17.081 2.7998 12C2.7998 6.919 6.91879 2.80002 11.9998 2.80002ZM11.9998 0.800018C18.1854 0.800018 23.1998 5.81443 23.1998 12C23.1998 18.1856 18.1854 23.2 11.9998 23.2C5.81422 23.2 0.799805 18.1856 0.799805 12C0.799805 5.81443 5.81422 0.800018 11.9998 0.800018Z" fill="#32383C"/>
<path fill-rule="evenodd" clip-rule="evenodd" d="M11.0504 17.184C10.9254 17.3089 10.7228 17.3089 10.5978 17.184L9.63615 16.2223C9.51119 16.0973 9.51119 15.8947 9.63615 15.7697L13.4059 12L9.63616 8.23024C9.51119 8.10527 9.51119 7.90266 9.63616 7.77769L10.5978 6.81603C10.7228 6.69106 10.9254 6.69106 11.0504 6.81603L16.0081 11.7737C16.133 11.8987 16.133 12.1013 16.0081 12.2263L11.0504 17.184Z" fill="#32383C"/>
</g>
<defs>
<clipPath id="clip0_133_1407">
<rect width="24" height="24" fill="white"/>
</clipPath>
</defs>
</svg>
