<svg width="24" height="24" viewBox="0 0 24 24" fill="none" xmlns="http://www.w3.org/2000/svg">
<g clip-path="url(#clip0_133_1405)">
<path fill-rule="evenodd" clip-rule="evenodd" d="M11.9998 2.80002C17.0808 2.80002 21.1998 6.919 21.1998 12C21.1998 17.081 17.0808 21.2 11.9998 21.2C6.91879 21.2 2.7998 17.081 2.7998 12C2.7998 6.919 6.91879 2.80002 11.9998 2.80002ZM11.9998 0.800018C18.1854 0.800018 23.1998 5.81443 23.1998 12C23.1998 18.1856 18.1854 23.2 11.9998 23.2C5.81422 23.2 0.799805 18.1856 0.799805 12C0.799805 5.81443 5.81422 0.800018 11.9998 0.800018Z" fill="#B3BCC2"/>
<path fill-rule="evenodd" clip-rule="evenodd" d="M13.0127 6.81604C13.1377 6.69107 13.3403 6.69107 13.4652 6.81604L14.4269 7.7777C14.5519 7.90267 14.5519 8.10528 14.4269 8.23025L10.6572 12L14.4269 15.7698C14.5519 15.8947 14.5519 16.0973 14.4269 16.2223L13.4652 17.184C13.3403 17.3089 13.1377 17.3089 13.0127 17.184L8.055 12.2263C7.93003 12.1013 7.93003 11.8987 8.055 11.7737L13.0127 6.81604Z" fill="#B3BCC2"/>
</g>
<defs>
<clipPath id="clip0_133_1405">
<rect width="24" height="24" fill="white"/>
</clipPath>
</defs>
</svg>
