<svg width="20" height="20" viewBox="0 0 20 20" fill="none" xmlns="http://www.w3.org/2000/svg">
<g clip-path="url(#clip0_77_95)">
<path fill-rule="evenodd" clip-rule="evenodd" d="M4.52616 4.57299C2.24377 6.85538 2.24377 10.5559 4.52616 12.8383C6.80855 15.1207 10.509 15.1207 12.7914 12.8383C15.0738 10.5559 15.0738 6.85538 12.7914 4.57299C10.509 2.2906 6.80855 2.2906 4.52616 4.57299ZM3.34765 14.0168C0.41438 11.0835 0.414381 6.32775 3.34765 3.39448C6.28091 0.461213 11.0367 0.461213 13.9699 3.39448C16.7103 6.13488 16.8905 10.466 14.5105 13.4156L18.5618 17.4669C18.666 17.571 18.666 17.7399 18.5618 17.844L17.7604 18.6454C17.6563 18.7495 17.4875 18.7495 17.3833 18.6454L13.3279 14.59C10.3793 16.9356 6.07544 16.7446 3.34765 14.0168Z" fill="#141618"/>
</g>
<defs>
<clipPath id="clip0_77_95">
<rect width="20" height="20" fill="white"/>
</clipPath>
</defs>
</svg>
